<svg xmlns="http://www.w3.org/2000/svg" xmlns:xlink="http://www.w3.org/1999/xlink" width="1080" zoomAndPan="magnify" viewBox="0 0 810 1012.49997" height="1350" preserveAspectRatio="xMidYMid meet" version="1.0"><defs><g/></defs><g fill="#000000" fill-opacity="1"><g transform="translate(40.263577, 576.09047)"><g><path d="M 43.671875 0 L 16.4375 0 L 16.4375 -130.546875 L 91.265625 -130.546875 L 91.265625 -107.875 L 43.671875 -107.875 L 43.671875 -74.203125 L 87.953125 -74.203125 L 87.953125 -51.609375 L 43.671875 -51.609375 Z M 43.671875 0 "/></g></g></g><g fill="#000000" fill-opacity="1"><g transform="translate(142.093304, 576.09047)"><g><path d="M 77.6875 0 L 72.421875 -13.578125 L 71.703125 -13.578125 C 67.117188 -7.796875 62.398438 -3.789062 57.546875 -1.5625 C 52.691406 0.664062 46.367188 1.78125 38.578125 1.78125 C 28.992188 1.78125 21.445312 -0.953125 15.9375 -6.421875 C 10.425781 -11.898438 7.671875 -19.703125 7.671875 -29.828125 C 7.671875 -40.421875 11.375 -48.234375 18.78125 -53.265625 C 26.195312 -58.296875 37.378906 -61.078125 52.328125 -61.609375 L 69.65625 -62.15625 L 69.65625 -66.53125 C 69.65625 -76.644531 64.472656 -81.703125 54.109375 -81.703125 C 46.128906 -81.703125 36.753906 -79.289062 25.984375 -74.46875 L 16.96875 -92.859375 C 28.457031 -98.878906 41.195312 -101.890625 55.1875 -101.890625 C 68.582031 -101.890625 78.847656 -98.972656 85.984375 -93.140625 C 93.128906 -87.304688 96.703125 -78.4375 96.703125 -66.53125 L 96.703125 0 Z M 69.65625 -46.25 L 59.109375 -45.890625 C 51.191406 -45.660156 45.296875 -44.234375 41.421875 -41.609375 C 37.554688 -38.992188 35.625 -35.003906 35.625 -29.640625 C 35.625 -21.960938 40.03125 -18.125 48.84375 -18.125 C 55.15625 -18.125 60.203125 -19.9375 63.984375 -23.5625 C 67.765625 -27.195312 69.65625 -32.023438 69.65625 -38.046875 Z M 69.65625 -46.25 "/></g></g></g><g fill="#000000" fill-opacity="1"><g transform="translate(254.013292, 576.09047)"><g><path d="M 13.125 -125.640625 C 13.125 -134.503906 18.066406 -138.9375 27.953125 -138.9375 C 37.828125 -138.9375 42.765625 -134.503906 42.765625 -125.640625 C 42.765625 -121.410156 41.53125 -118.117188 39.0625 -115.765625 C 36.59375 -113.421875 32.890625 -112.25 27.953125 -112.25 C 18.066406 -112.25 13.125 -116.710938 13.125 -125.640625 Z M 41.515625 0 L 14.28125 0 L 14.28125 -99.828125 L 41.515625 -99.828125 Z M 41.515625 0 "/></g></g></g><g fill="#000000" fill-opacity="1"><g transform="translate(311.285208, 576.09047)"><g><path d="M 70 -101.703125 C 73.695312 -101.703125 76.765625 -101.4375 79.203125 -100.90625 L 77.15625 -75.359375 C 74.945312 -75.953125 72.265625 -76.25 69.109375 -76.25 C 60.421875 -76.25 53.648438 -74.015625 48.796875 -69.546875 C 43.941406 -65.085938 41.515625 -58.84375 41.515625 -50.8125 L 41.515625 0 L 14.28125 0 L 14.28125 -99.828125 L 34.921875 -99.828125 L 38.9375 -83.046875 L 40.265625 -83.046875 C 43.367188 -88.640625 47.550781 -93.144531 52.8125 -96.5625 C 58.082031 -99.988281 63.8125 -101.703125 70 -101.703125 Z M 70 -101.703125 "/></g></g></g><g fill="#000000" fill-opacity="1"><g transform="translate(395.791871, 576.09047)"><g><path d="M 96.34375 0 L 88.671875 -34.921875 L 78.3125 -79.03125 L 77.6875 -79.03125 L 59.46875 0 L 30.1875 0 L 1.78125 -99.828125 L 28.9375 -99.828125 L 40.453125 -55.625 C 42.296875 -47.707031 44.171875 -36.785156 46.078125 -22.859375 L 46.609375 -22.859375 C 46.847656 -27.378906 47.890625 -34.550781 49.734375 -44.375 L 51.171875 -51.96875 L 63.484375 -99.828125 L 93.484375 -99.828125 L 105.1875 -51.96875 C 105.425781 -50.65625 105.796875 -48.71875 106.296875 -46.15625 C 106.804688 -43.601562 107.300781 -40.878906 107.78125 -37.984375 C 108.257812 -35.097656 108.691406 -32.269531 109.078125 -29.5 C 109.460938 -26.738281 109.6875 -24.523438 109.75 -22.859375 L 110.28125 -22.859375 C 110.8125 -27.140625 111.757812 -33.015625 113.125 -40.484375 C 114.5 -47.960938 115.484375 -53.007812 116.078125 -55.625 L 128.046875 -99.828125 L 154.75 -99.828125 L 126 0 Z M 96.34375 0 "/></g></g></g><g fill="#000000" fill-opacity="1"><g transform="translate(553.787647, 576.09047)"><g><path d="M 77.6875 0 L 72.421875 -13.578125 L 71.703125 -13.578125 C 67.117188 -7.796875 62.398438 -3.789062 57.546875 -1.5625 C 52.691406 0.664062 46.367188 1.78125 38.578125 1.78125 C 28.992188 1.78125 21.445312 -0.953125 15.9375 -6.421875 C 10.425781 -11.898438 7.671875 -19.703125 7.671875 -29.828125 C 7.671875 -40.421875 11.375 -48.234375 18.78125 -53.265625 C 26.195312 -58.296875 37.378906 -61.078125 52.328125 -61.609375 L 69.65625 -62.15625 L 69.65625 -66.53125 C 69.65625 -76.644531 64.472656 -81.703125 54.109375 -81.703125 C 46.128906 -81.703125 36.753906 -79.289062 25.984375 -74.46875 L 16.96875 -92.859375 C 28.457031 -98.878906 41.195312 -101.890625 55.1875 -101.890625 C 68.582031 -101.890625 78.847656 -98.972656 85.984375 -93.140625 C 93.128906 -87.304688 96.703125 -78.4375 96.703125 -66.53125 L 96.703125 0 Z M 69.65625 -46.25 L 59.109375 -45.890625 C 51.191406 -45.660156 45.296875 -44.234375 41.421875 -41.609375 C 37.554688 -38.992188 35.625 -35.003906 35.625 -29.640625 C 35.625 -21.960938 40.03125 -18.125 48.84375 -18.125 C 55.15625 -18.125 60.203125 -19.9375 63.984375 -23.5625 C 67.765625 -27.195312 69.65625 -32.023438 69.65625 -38.046875 Z M 69.65625 -46.25 "/></g></g></g><g fill="#000000" fill-opacity="1"><g transform="translate(665.707635, 576.09047)"><g><path d="M 0 -99.828125 L 29.828125 -99.828125 L 48.671875 -43.671875 C 50.273438 -38.785156 51.375 -33.007812 51.96875 -26.34375 L 52.5 -26.34375 C 53.15625 -32.476562 54.4375 -38.253906 56.34375 -43.671875 L 74.828125 -99.828125 L 104.03125 -99.828125 L 61.796875 12.765625 C 57.921875 23.179688 52.394531 30.976562 45.21875 36.15625 C 38.050781 41.34375 29.675781 43.9375 20.09375 43.9375 C 15.382812 43.9375 10.769531 43.429688 6.25 42.421875 L 6.25 20.8125 C 9.519531 21.582031 13.09375 21.96875 16.96875 21.96875 C 21.789062 21.96875 26 20.492188 29.59375 17.546875 C 33.195312 14.597656 36.015625 10.148438 38.046875 4.203125 L 39.640625 -0.71875 Z M 0 -99.828125 "/></g></g></g></svg>