<?xml version="1.0" encoding="UTF-8" standalone="no"?>
<!-- Created with Inkscape (http://www.inkscape.org/) -->

<svg
   xmlns:dc="http://purl.org/dc/elements/1.1/"
   xmlns:cc="http://creativecommons.org/ns#"
   xmlns:rdf="http://www.w3.org/1999/02/22-rdf-syntax-ns#"
   xmlns:svg="http://www.w3.org/2000/svg"
   xmlns="http://www.w3.org/2000/svg"
   xmlns:xlink="http://www.w3.org/1999/xlink"
   xmlns:sodipodi="http://sodipodi.sourceforge.net/DTD/sodipodi-0.dtd"
   xmlns:inkscape="http://www.inkscape.org/namespaces/inkscape"
   width="704.90344mm"
   height="204.31505mm"
   viewBox="0 0 704.90344 204.31505"
   version="1.1"
   id="svg8"
   inkscape:version="0.92.0 r15299"
   sodipodi:docname="Rigshospitalet.svg">
  <defs
     id="defs2">
    <linearGradient
       inkscape:collect="always"
       id="linearGradient4519">
      <stop
         style="stop-color:#019ce8;stop-opacity:1;"
         offset="0"
         id="stop4515" />
      <stop
         style="stop-color:#019ce8;stop-opacity:0;"
         offset="1"
         id="stop4517" />
    </linearGradient>
    <linearGradient
       inkscape:collect="always"
       xlink:href="#linearGradient4519"
       id="linearGradient4521"
       x1="-347.04001"
       y1="278.76144"
       x2="-174.77191"
       y2="448.508"
       gradientUnits="userSpaceOnUse" />
  </defs>
  <sodipodi:namedview
     id="base"
     pagecolor="#ffffff"
     bordercolor="#666666"
     borderopacity="1.0"
     inkscape:pageopacity="0.0"
     inkscape:pageshadow="2"
     inkscape:zoom="0.35"
     inkscape:cx="1522.9734"
     inkscape:cy="821.78792"
     inkscape:document-units="mm"
     inkscape:current-layer="layer1"
     showgrid="false"
     inkscape:snap-bbox="true"
     inkscape:snap-bbox-midpoints="true"
     inkscape:window-width="1920"
     inkscape:window-height="1137"
     inkscape:window-x="-8"
     inkscape:window-y="-8"
     inkscape:window-maximized="1" />
  <metadata
     id="metadata5">
    <rdf:RDF>
      <cc:Work
         rdf:about="">
        <dc:format>image/svg+xml</dc:format>
        <dc:type
           rdf:resource="http://purl.org/dc/dcmitype/StillImage" />
        <dc:title></dc:title>
      </cc:Work>
    </rdf:RDF>
  </metadata>
  <g
     inkscape:label="Layer 1"
     inkscape:groupmode="layer"
     id="layer1"
     transform="translate(417.79596,-170.20786)">
    <g
       id="g4553"
       transform="translate(-0.75594947,-38.553568)">
      <path
         sodipodi:nodetypes="ccccccccccccc"
         inkscape:connector-curvature="0"
         id="path4496"
         d="m -417.04001,208.76145 v 204.31503 h 70 v -70 h 67.90564 v 70 h 70 V 208.76143 h -70 v 69.99998 l -67.90564,3e-5 v -70 z"
         style="fill:url(#linearGradient4521);fill-opacity:1;stroke:none;stroke-width:0.26458332px;stroke-linecap:butt;stroke-linejoin:miter;stroke-opacity:1" />
      <g
         transform="translate(1.6124959,-0.75875443)"
         id="g4541">
        <path
           style="opacity:1;fill:#ffffff;fill-opacity:1;fill-rule:evenodd;stroke:none;stroke-width:0.29399648;stroke-linecap:square;stroke-linejoin:miter;stroke-miterlimit:4;stroke-dasharray:none;stroke-dashoffset:0;stroke-opacity:1;paint-order:markers stroke fill"
           d="m -400.55654,391.75835 c 0,-8.31675 0.0446,-9.54762 0.42513,-11.526 0.18426,-0.95788 0.65625,-2.57097 0.79963,-2.73283 0.0619,-0.0698 0.11247,-0.20707 0.11247,-0.30499 0,-0.0979 0.27377,-0.59359 0.60836,-1.10148 0.90059,-1.36701 1.91931,-2.19018 3.31946,-2.6823 2.47576,-0.87016 6.10076,-0.88419 8.27728,-0.0321 1.49008,0.58339 3.39124,2.21582 4.51908,3.88028 0.36105,0.53286 0.74017,0.96885 0.84249,0.96885 0.10229,0 2.28036,-1.16212 4.84018,-2.58249 2.55979,-1.42037 5.13527,-2.84377 5.72325,-3.16313 1.08445,-0.58899 1.44653,-0.79025 2.40544,-1.33703 0.294,-0.16764 0.73181,-0.41662 0.97292,-0.5533 0.88353,-0.50085 0.83797,-0.77716 0.79934,4.8472 l -0.035,5.0957 -0.46773,0.25317 c -0.25723,0.13925 -1.94103,1.01136 -3.74176,1.93803 -7.13105,3.66968 -7.95478,4.10397 -8.04945,4.24367 -0.13229,0.19524 -0.12591,4.11025 0.007,4.31959 0.0806,0.12698 1.52378,0.17379 6.17857,0.20046 l 6.07335,0.0348 0.0352,4.44335 0.0352,4.44336 h -16.83978 -16.83977 z m 14.54267,-2.90656 c 0.0614,-3.67558 -0.298,-5.28834 -1.37655,-6.17736 -0.62624,-0.51619 -1.36152,-0.70649 -2.70068,-0.69896 -1.67855,0.009 -2.32696,0.33617 -2.86483,1.44357 -0.28496,0.58673 -0.30517,0.82024 -0.35714,4.12959 -0.0303,1.92923 -0.0201,3.59898 0.0228,3.71056 0.0674,0.17565 0.55779,0.19808 3.65593,0.16726 l 3.57809,-0.0356 z"
           id="path4523"
           inkscape:connector-curvature="0" />
        <path
           style="opacity:1;fill:#ffffff;fill-opacity:1;fill-rule:evenodd;stroke:none;stroke-width:0.29399648;stroke-linecap:square;stroke-linejoin:miter;stroke-miterlimit:4;stroke-dasharray:none;stroke-dashoffset:0;stroke-opacity:1;paint-order:markers stroke fill"
           d="m -400.46105,365.48993 c -0.0374,-0.0975 -0.0347,-5.72135 0.006,-12.49747 l 0.0741,-12.32022 3.62101,0.0355 3.62098,0.0355 0.0345,7.9208 0.0345,7.92081 2.5046,-0.0364 2.50457,-0.0364 0.0347,-6.45002 0.0347,-6.45003 3.64027,0.0356 3.64025,0.0356 0.0347,6.44788 0.0347,6.44788 h 3.13809 3.13809 l 0.0344,-8.0515 0.0344,-8.05149 3.54131,-0.0742 c 2.10553,-0.0441 3.60934,-0.0237 3.70906,0.0503 0.13288,0.0986 0.16063,2.72305 0.13362,12.63583 l -0.0341,12.51133 -16.72326,0.0339 c -13.79304,0.028 -16.73518,0.003 -16.79127,-0.14334 z"
           id="path4525"
           inkscape:connector-curvature="0" />
        <path
           style="opacity:1;fill:#ffffff;fill-opacity:1;fill-rule:evenodd;stroke:none;stroke-width:0.29399648;stroke-linecap:square;stroke-linejoin:miter;stroke-miterlimit:4;stroke-dasharray:none;stroke-dashoffset:0;stroke-opacity:1;paint-order:markers stroke fill"
           d="m -387.05856,336.25019 c -2.40569,-0.321 -3.29705,-0.5135 -4.97792,-1.07506 -1.39049,-0.46456 -2.97058,-1.27251 -3.94928,-2.01937 -0.8193,-0.62524 -2.46303,-2.34752 -2.74481,-2.87597 -0.10586,-0.19851 -0.37102,-0.69419 -0.58928,-1.10151 -0.21828,-0.40732 -0.51864,-1.09888 -0.66749,-1.5368 -0.2622,-0.77135 -0.34682,-1.09837 -0.72451,-2.80074 -0.24506,-1.10447 -0.24506,-6.77998 0,-7.88445 0.38486,-1.73461 0.45374,-2.01864 0.58335,-2.40543 1.09321,-3.26224 3.13984,-5.43192 6.05865,-6.42288 1.15789,-0.39312 1.05415,-0.54279 2.41347,3.48292 0.67009,1.98447 1.26333,3.71287 1.31834,3.84087 0.071,0.16522 0.0281,0.25494 -0.14774,0.30927 -0.57582,0.17788 -1.62237,0.72079 -1.99681,1.03586 -0.89511,0.75319 -1.31022,2.18582 -1.30376,4.49978 0.008,2.95015 0.6823,4.20196 2.77992,5.16227 1.62867,0.74564 3.43207,1.00064 7.08829,1.00229 4.78597,0.002 7.23101,-0.60807 8.81338,-2.19961 1.09429,-1.10062 1.53009,-2.33698 1.53855,-4.365 0.007,-1.73576 -0.69649,-3.29622 -1.83853,-4.07664 -1.00907,-0.68956 -3.78106,-1.2738 -4.04741,-0.85308 -0.0653,0.10316 -0.11968,1.28505 -0.12081,2.62641 l -0.003,2.43883 h -3.07361 -3.07359 v -6.94901 -6.949 l 2.50566,-1.8e-4 c 6.31243,-5.3e-4 10.75965,1.29422 13.4221,3.90735 1.76588,1.7332 2.57448,3.37595 3.20739,6.51633 0.23936,1.1877 0.23802,6.46343 -0.003,7.55037 -0.70517,3.19425 -1.55866,5.0162 -3.14658,6.71703 -1.04693,1.12138 -2.96741,2.40546 -4.42722,2.96015 -0.44101,0.16756 -0.92208,0.35392 -1.06908,0.41412 -0.147,0.0602 -0.41762,0.14729 -0.60137,0.19354 -0.18373,0.0463 -0.63476,0.16291 -1.00224,0.25922 -2.50627,0.65689 -7.56462,0.95284 -10.22308,0.59812 z"
           id="path4527"
           inkscape:connector-curvature="0" />
        <path
           style="opacity:1;fill:#ffffff;fill-opacity:1;fill-rule:evenodd;stroke:none;stroke-width:0.29399648;stroke-linecap:square;stroke-linejoin:miter;stroke-miterlimit:4;stroke-dasharray:none;stroke-dashoffset:0;stroke-opacity:1;paint-order:markers stroke fill"
           d="m -400.33241,301.16563 c -0.0493,-0.0493 -0.0896,-2.06429 -0.0896,-4.4778 v -4.38819 l 16.73775,0.0339 16.73775,0.0339 v 4.40995 4.40995 l -16.64814,0.0339 c -9.15648,0.0187 -16.68848,-0.006 -16.73775,-0.0557 z"
           id="path4529"
           inkscape:connector-curvature="0" />
        <path
           style="opacity:1;fill:#ffffff;fill-opacity:1;fill-rule:evenodd;stroke:none;stroke-width:0.29399648;stroke-linecap:square;stroke-linejoin:miter;stroke-miterlimit:4;stroke-dasharray:none;stroke-dashoffset:0;stroke-opacity:1;paint-order:markers stroke fill"
           d="m -384.98721,286.33671 c -0.147,-0.0262 -0.89869,-0.10744 -1.67045,-0.18053 -2.42088,-0.2293 -3.61013,-0.50424 -5.54582,-1.28214 -2.42885,-0.9761 -4.60733,-2.55947 -5.89325,-4.28339 -0.21236,-0.28466 -0.41667,-0.54762 -0.45408,-0.58437 -0.10208,-0.10033 -0.93578,-1.47867 -0.93578,-1.54714 0,-0.0327 -0.11314,-0.31431 -0.25143,-0.62588 -0.37442,-0.84348 -0.45265,-1.09304 -0.97378,-3.10556 -0.23595,-0.91116 -0.23153,-6.00886 0.006,-7.01582 1.14393,-4.84801 3.5138,-7.87729 7.68657,-9.82525 2.75513,-1.28617 5.4325,-1.80098 9.36651,-1.80098 5.89169,0 10.35778,1.48652 13.35231,4.44425 0.81237,0.80239 1.95064,2.22007 1.95064,2.42946 0,0.0555 0.11001,0.26048 0.24445,0.45558 0.13446,0.19509 0.38086,0.71553 0.54758,1.15652 0.16671,0.441 0.35179,0.92208 0.41132,1.06908 0.10382,0.25645 0.18642,0.58569 0.55308,2.20497 0.22225,0.98154 0.22292,5.82946 0,6.81538 -0.56181,2.4953 -1.06928,3.75941 -2.17262,5.4122 -0.67268,1.00766 -2.21724,2.57084 -3.19934,3.23788 -1.49924,1.01829 -3.86528,2.02503 -5.67301,2.41385 -2.34956,0.50536 -6.1653,0.82303 -7.34992,0.61189 z m 4.61039,-9.06951 c 2.00853,-0.34544 2.80628,-0.6199 4.00905,-1.37928 1.20142,-0.75853 1.77456,-1.47936 2.38855,-3.00398 0.0828,-0.20558 0.15052,-0.97625 0.15052,-1.7126 0,-1.23513 -0.0344,-1.41318 -0.44439,-2.29892 -0.74028,-1.59931 -2.32934,-2.80367 -4.44305,-3.36737 -2.61442,-0.69724 -6.63667,-0.77525 -9.4783,-0.18384 -2.65938,0.55347 -4.30591,1.86618 -5.15313,4.10832 -0.26747,0.70791 -0.19838,3.01695 0.11512,3.84578 0.84791,2.24189 2.54828,3.38907 5.97345,4.03006 1.10842,0.20743 5.59892,0.18253 6.88218,-0.0382 z"
           id="path4531"
           inkscape:connector-curvature="0" />
        <path
           style="opacity:1;fill:#ffffff;fill-opacity:1;fill-rule:evenodd;stroke:none;stroke-width:0.29399648;stroke-linecap:square;stroke-linejoin:miter;stroke-miterlimit:4;stroke-dasharray:none;stroke-dashoffset:0;stroke-opacity:1;paint-order:markers stroke fill"
           d="m -400.36128,250.43857 c -0.0354,-0.0924 -0.0486,-2.14197 -0.0292,-4.55453 l 0.0353,-4.38647 1.26953,-0.67521 c 0.69826,-0.37136 1.94889,-1.02807 2.77921,-1.45936 1.43888,-0.74741 2.80746,-1.46741 5.17207,-2.72097 0.58799,-0.31172 1.65539,-0.87528 2.37202,-1.25235 2.42779,-1.27746 3.90649,-2.06036 4.577,-2.42325 0.36748,-0.1989 1.17933,-0.62234 1.80406,-0.94097 1.2722,-0.64886 1.8007,-1.00816 1.63425,-1.11103 -0.0616,-0.038 -1.19115,-0.0146 -2.51013,0.0522 -1.319,0.0668 -5.72066,0.12318 -9.78151,0.12536 l -7.3833,0.004 v -4.07586 -4.07586 h 16.70433 16.70436 v 4.57699 4.57699 l -1.10127,0.5771 c -0.60574,0.3174 -1.97326,1.03392 -3.039,1.59226 -1.06575,0.55835 -3.98233,2.09712 -6.48129,3.41949 -2.49896,1.32238 -5.08482,2.68724 -5.7463,3.03302 -3.05025,1.59447 -3.43879,1.81446 -3.42207,1.93759 0.01,0.0727 0.33033,0.11414 0.71768,0.0928 0.38495,-0.0212 4.83421,-0.0697 9.88727,-0.10779 l 9.18739,-0.0693 v 4.0166 4.0166 h -16.64173 c -13.2438,0 -16.65489,-0.0343 -16.70622,-0.16806 z"
           id="path4533"
           inkscape:connector-curvature="0" />
      </g>
    </g>
    <g
       id="g4603"
       transform="translate(-9.3596145,200.06246)"
       style="fill:#565656;fill-opacity:1">
      <path
         transform="scale(0.26458333)"
         inkscape:connector-curvature="0"
         id="path4555"
         d="m -553.54139,248.58697 v -95.96449 l 44.95179,0.0153 c 64.28289,0.0218 82.32818,3.8986 98.17624,21.0917 9.96846,10.8145 13.3745,20.69277 13.27213,38.49205 -0.12855,22.35113 -11.4156,41.64183 -28.55481,48.80305 -3.64487,1.52292 -6.62704,3.6093 -6.62704,4.63638 0,1.02709 9.07104,17.40113 20.15786,36.38677 11.08683,18.98564 21.11933,36.31584 22.29444,38.51156 2.07687,3.88067 1.41481,3.99054 -23.6934,3.93218 l -25.82997,-0.06 -19.31362,-35.80037 -19.31361,-35.80037 -15.53665,-0.59006 -15.53665,-0.59006 v 36.45048 36.45047 h -22.22335 -22.22336 z m 100.56054,-15.16077 c 11.07181,-6.75048 14.39671,-24.86882 6.42373,-35.00481 -5.65037,-7.18329 -15.29236,-9.40891 -40.81928,-9.42215 l -21.71828,-0.0113 v 24.24366 24.24366 l 24.74874,-0.007 c 21.17081,-0.006 25.70526,-0.59075 31.36509,-4.04154 z"
         style="opacity:1;fill:#565656;fill-opacity:1;fill-rule:evenodd;stroke:none;stroke-width:4.44467115;stroke-linecap:square;stroke-linejoin:miter;stroke-miterlimit:4;stroke-dasharray:none;stroke-dashoffset:0;stroke-opacity:1;paint-order:markers stroke fill" />
      <path
         transform="scale(0.26458333)"
         inkscape:connector-curvature="0"
         id="path4557"
         d="M -375.75454,271.82048 V 199.0895 h 22.22335 22.22336 v 72.73098 72.73098 h -22.22336 -22.22335 z"
         style="opacity:1;fill:#565656;fill-opacity:1;fill-rule:evenodd;stroke:none;stroke-width:4.44467115;stroke-linecap:square;stroke-linejoin:miter;stroke-miterlimit:4;stroke-dasharray:none;stroke-dashoffset:0;stroke-opacity:1;paint-order:markers stroke fill" />
      <path
         transform="scale(0.26458333)"
         inkscape:connector-curvature="0"
         id="path4559"
         d="m -273.17003,392.97973 c -24.0929,-3.75568 -39.56646,-14.12782 -43.76588,-29.33688 -3.63852,-13.17765 4.2153,-27.6295 16.479,-30.32306 l 6.09983,-1.33975 -6.30492,-4.93433 c -12.30325,-9.62874 -13.53768,-30.35883 -2.3675,-39.75792 3.25466,-2.73862 6.93213,-5.31749 8.17216,-5.73083 1.24002,-0.41334 -0.96409,-4.16431 -4.89801,-8.33549 -14.92437,-15.82444 -14.95708,-42.24604 -0.0738,-59.63378 11.62471,-13.58086 36.66337,-20.25937 61.32671,-16.35756 l 13.00331,2.05717 4.86461,-6.21582 c 6.88761,-8.80073 18.52829,-14.18503 30.66758,-14.18503 h 10.18201 v 17.91673 17.91673 l -8.24807,1.1063 c -4.53644,0.60847 -8.74136,1.59959 -9.34427,2.2025 -0.60292,0.60291 0.38131,4.78887 2.18715,9.30213 7.07323,17.67774 2.61833,41.04363 -10.09894,52.96876 -10.11436,9.48436 -20.01238,12.47702 -45.18554,13.66185 -20.87696,0.98261 -23.28753,1.48565 -23.95827,4.99961 -1.4768,7.73687 4.6589,9.22491 38.03746,9.22491 28.65992,0 32.32618,0.41125 40.52504,4.54569 10.74554,5.41866 16.08278,14.64421 16.07104,27.77919 -0.0299,33.41741 -21.24458,50.64342 -65.64551,53.30315 -8.88935,0.53249 -21.36567,0.15697 -27.72517,-0.83427 z m 41.99709,-30.67226 c 5.22195,-2.37928 8.22118,-9.48628 6.21242,-14.72103 -0.94254,-2.45623 -5.59363,-3.03498 -24.39046,-3.03498 -21.4093,0 -23.40064,0.32662 -25.46081,4.17609 -2.97401,5.55699 2.09641,13.48673 9.69451,15.16145 3.04165,0.67042 6.43942,1.56696 7.55059,1.99231 3.32843,1.27409 21.00761,-1.11975 26.39375,-3.57384 z m -9.75134,-99.63643 c 6.11518,-4.28324 7.96814,-15.79618 3.91149,-24.30308 -6.26447,-13.13672 -26.01395,-10.61674 -29.87271,3.81169 -1.86041,6.95631 1.38695,18.833 5.86281,21.4423 5.16765,3.01259 15.11139,2.54213 20.09841,-0.95091 z"
         style="opacity:1;fill:#565656;fill-opacity:1;fill-rule:evenodd;stroke:none;stroke-width:4.44467115;stroke-linecap:square;stroke-linejoin:miter;stroke-miterlimit:4;stroke-dasharray:none;stroke-dashoffset:0;stroke-opacity:1;paint-order:markers stroke fill" />
      <path
         transform="scale(0.26458333)"
         inkscape:connector-curvature="0"
         id="path4561"
         d="m -375.32812,171.3103 0.58373,-17.67767 21.71828,-0.57342 21.71828,-0.57343 v 18.2511 18.25109 h -22.30201 -22.30201 z"
         style="opacity:1;fill:#565656;fill-opacity:1;fill-rule:evenodd;stroke:none;stroke-width:4.44467115;stroke-linecap:square;stroke-linejoin:miter;stroke-miterlimit:4;stroke-dasharray:none;stroke-dashoffset:0;stroke-opacity:1;paint-order:markers stroke fill" />
      <path
         transform="scale(0.26458333)"
         inkscape:connector-curvature="0"
         id="path4563"
         d="m -135.87469,346.52171 c -18.42673,-4.65092 -34.77584,-18.40843 -39.26724,-33.04278 l -2.12681,-6.92976 19.3689,-4.47574 c 15.81308,-3.65408 19.53713,-3.97102 20.28534,-1.72641 0.50404,1.51213 3.42531,5.25821 6.49171,8.3246 4.48008,4.48009 7.41137,5.57527 14.92237,5.57527 17.120254,0 28.231451,-10.18154 19.964565,-18.29415 -2.060873,-2.02242 -13.188765,-6.05373 -24.728645,-8.95847 -38.32198,-9.64616 -48.96018,-18.22781 -50.38772,-40.64689 -1.073,-16.85115 2.12805,-25.33734 13.25041,-35.12763 28.95107,-25.48376 87.822461,-17.07472 100.392036,14.33975 1.844055,4.60874 3.087499,8.58364 2.763207,8.83309 -0.324289,0.24946 -8.317285,2.36296 -17.762211,4.69666 l -17.172593,4.2431 -4.04061,-4.75852 c -8.723009,-10.27284 -23.345269,-12.3654 -32.340359,-4.62815 -10.00495,8.6059 -2.86675,13.62808 29.777072,20.95013 36.139644,8.10616 50.610437,25.64948 43.974452,53.31138 -3.624193,15.10733 -11.748575,24.81371 -27.091752,32.36714 -11.219322,5.52325 -15.861561,6.60125 -30.932492,7.18302 -9.75266,0.37648 -21.15549,-0.17956 -25.33963,-1.23564 z"
         style="opacity:1;fill:#565656;fill-opacity:1;fill-rule:evenodd;stroke:none;stroke-width:4.44467115;stroke-linecap:square;stroke-linejoin:miter;stroke-miterlimit:4;stroke-dasharray:none;stroke-dashoffset:0;stroke-opacity:1;paint-order:markers stroke fill" />
      <path
         transform="scale(0.26458333)"
         inkscape:connector-curvature="0"
         id="path4565"
         d="m -38.363591,248.58697 v -95.96449 h 22.223356 22.2233556 v 27.1319 27.13189 l 9.4505464,-5.28201 c 7.415597,-4.14466 12.092108,-5.25519 21.71828,-5.15744 20.908135,0.2123 34.556894,8.23445 42.306708,24.86603 3.922735,8.41844 4.290079,13.31594 4.96278,66.16499 l 0.726476,57.07362 H 62.838109 40.428307 v -50.60795 c 0,-40.76972 -0.582296,-51.73399 -2.995341,-56.40031 -5.411666,-10.465 -22.964735,-10.42266 -28.3899187,0.0685 -2.3685895,4.58035 -2.9599267,15.83437 -2.9599267,56.33183 v 50.60795 H -16.140235 -38.363591 Z"
         style="opacity:1;fill:#565656;fill-opacity:1;fill-rule:evenodd;stroke:none;stroke-width:4.44467115;stroke-linecap:square;stroke-linejoin:miter;stroke-miterlimit:4;stroke-dasharray:none;stroke-dashoffset:0;stroke-opacity:1;paint-order:markers stroke fill" />
      <path
         transform="scale(0.26458333)"
         inkscape:connector-curvature="0"
         id="path4567"
         d="m 142.89313,346.51459 c -17.35446,-4.3768 -29.41747,-14.71211 -37.64736,-32.25541 -4.88563,-10.41448 -5.21846,-13.05915 -5.21846,-41.46508 0,-30.23229 0.0239,-30.38963 6.65718,-43.86972 11.27716,-22.91724 27.72277,-32.31992 56.79743,-32.47362 38.28443,-0.20238 59.01434,18.51829 64.867,58.57982 1.80805,12.37613 1.85922,20.69054 0.20308,32.99666 -5.46856,40.6346 -23.33299,58.30898 -60.37772,59.7354 -9.70164,0.37357 -21.07816,-0.18806 -25.28115,-1.24805 z m 33.8572,-39.10653 c 6.94505,-6.94506 9.69315,-19.69743 8.77623,-40.72563 -0.98265,-22.53585 -5.15579,-31.29326 -16.23424,-34.06788 -10.34846,-2.59178 -19.36966,1.53982 -23.50413,10.76462 -2.34555,5.23336 -3.2317,13.36112 -3.21104,29.45146 0.0394,30.68298 4.73446,39.1987 21.68668,39.33452 5.44236,0.0436 9.06654,-1.33713 12.4865,-4.75709 z"
         style="opacity:1;fill:#565656;fill-opacity:1;fill-rule:evenodd;stroke:none;stroke-width:4.44467115;stroke-linecap:square;stroke-linejoin:miter;stroke-miterlimit:4;stroke-dasharray:none;stroke-dashoffset:0;stroke-opacity:1;paint-order:markers stroke fill" />
      <path
         transform="scale(0.26458333)"
         inkscape:connector-curvature="0"
         id="path4569"
         d="m 274.23195,344.77808 c -18.54806,-6.13663 -31.10375,-17.98398 -34.81304,-32.84906 -1.31822,-5.2828 -1.10892,-5.40129 17.08472,-9.67265 18.55958,-4.35727 22.32068,-4.2138 22.32068,0.85144 0,1.52052 2.50013,4.73766 5.55584,7.14919 10.62716,8.38683 36.87056,2.59875 36.87056,-8.13194 0,-6.17835 -7.07446,-10.00136 -28.1631,-15.21924 -38.27067,-9.46916 -50.62879,-20.30194 -50.62879,-44.37976 0,-24.17127 16.9376,-40.57815 46.81872,-45.35168 28.64134,-4.57548 57.0429,6.60135 67.50088,26.56353 5.1849,9.89691 4.05927,11.08578 -14.54126,15.35807 l -17.39935,3.99641 -5.39462,-6.03763 c -9.4447,-10.57046 -32.5681,-9.31292 -34.17667,1.85866 -0.89435,6.21127 5.47847,9.54736 27.90297,14.60683 33.72355,7.6088 47.45842,18.10684 49.82423,38.0824 3.78967,31.99785 -20.15626,54.5405 -59.77895,56.27577 -13.20342,0.57824 -20.09122,-0.15855 -28.98282,-3.10034 z"
         style="opacity:1;fill:#565656;fill-opacity:1;fill-rule:evenodd;stroke:none;stroke-width:4.44467115;stroke-linecap:square;stroke-linejoin:miter;stroke-miterlimit:4;stroke-dasharray:none;stroke-dashoffset:0;stroke-opacity:1;paint-order:markers stroke fill" />
      <path
         transform="scale(0.26458333)"
         inkscape:connector-curvature="0"
         id="path4571"
         d="M 379.83956,295.05399 V 199.0895 h 21.21321 21.2132 v 10.40029 10.4003 l 4.54569,-6.679 c 11.86057,-17.42681 32.10843,-22.10246 52.02285,-12.01316 10.07408,5.10385 17.12292,13.25245 23.51693,27.18599 4.8244,10.51314 5.67828,15.30926 6.43411,36.13979 0.96057,26.47343 -1.35723,41.16799 -8.79896,55.78409 -14.82631,29.11993 -47.66697,37.10418 -71.15463,17.29916 l -6.56599,-5.53651 v 29.47401 29.47402 h -21.2132 -21.21321 z m 73.05384,16.99981 c 16.61596,-8.8926 16.61596,-69.55374 0,-78.44633 -4.5219,-2.42004 -14.33486,-2.89148 -19.43658,-0.93376 -1.80496,0.69262 -5.24213,5.01103 -7.63815,9.59644 -3.59546,6.88086 -4.36904,11.86605 -4.4287,28.54018 -0.0815,22.77896 2.6991,33.31777 10.38608,39.36436 5.69142,4.47686 14.75621,5.28349 21.11735,1.87911 z"
         style="opacity:1;fill:#565656;fill-opacity:1;fill-rule:evenodd;stroke:none;stroke-width:4.44467115;stroke-linecap:square;stroke-linejoin:miter;stroke-miterlimit:4;stroke-dasharray:none;stroke-dashoffset:0;stroke-opacity:1;paint-order:markers stroke fill" />
      <path
         transform="scale(0.26458333)"
         inkscape:connector-curvature="0"
         id="path4573"
         d="M 527.32183,271.82048 V 199.0895 h 22.22336 22.22336 v 72.73098 72.73098 h -22.22336 -22.22336 z"
         style="opacity:1;fill:#565656;fill-opacity:1;fill-rule:evenodd;stroke:none;stroke-width:4.44467115;stroke-linecap:square;stroke-linejoin:miter;stroke-miterlimit:4;stroke-dasharray:none;stroke-dashoffset:0;stroke-opacity:1;paint-order:markers stroke fill" />
      <path
         transform="scale(0.26458333)"
         inkscape:connector-curvature="0"
         id="path4575"
         d="m 527.32183,170.80523 v -18.18275 h 22.22336 22.22336 v 18.18275 18.18274 h -22.22336 -22.22336 z"
         style="opacity:1;fill:#565656;fill-opacity:1;fill-rule:evenodd;stroke:none;stroke-width:4.44467115;stroke-linecap:square;stroke-linejoin:miter;stroke-miterlimit:4;stroke-dasharray:none;stroke-dashoffset:0;stroke-opacity:1;paint-order:markers stroke fill" />
      <path
         transform="scale(0.26458333)"
         inkscape:connector-curvature="0"
         id="path4577"
         d="m 629.83317,345.70443 c -9.93561,-3.54542 -13.01385,-6.26644 -18.29287,-16.1701 -4.03169,-7.56363 -4.43479,-11.70731 -5.07388,-52.15801 l -0.69424,-43.94164 h -8.9206 -8.92059 V 216.26209 199.0895 h 9.09137 9.09137 v -9.09546 -9.09546 l 19.05889,-14.13805 c 10.48238,-7.77593 20.48289,-14.13805 22.22335,-14.13805 2.68898,0 3.16447,3.49107 3.16447,23.23351 v 23.23351 h 14.14214 14.14214 v 17.17259 17.17259 h -14.14214 -14.14214 v 36.31892 36.31892 l 5.01618,3.28672 c 3.85045,2.52292 6.33452,2.82715 10.68906,1.30915 5.59322,-1.9498 5.75452,-1.77916 11.48629,12.15204 l 5.8134,14.12962 -4.88571,3.68694 c -10.25204,7.73657 -34.35827,10.2374 -48.84649,5.06744 z"
         style="opacity:1;fill:#565656;fill-opacity:1;fill-rule:evenodd;stroke:none;stroke-width:4.44467115;stroke-linecap:square;stroke-linejoin:miter;stroke-miterlimit:4;stroke-dasharray:none;stroke-dashoffset:0;stroke-opacity:1;paint-order:markers stroke fill" />
      <path
         transform="scale(0.26458333)"
         inkscape:connector-curvature="0"
         id="path4579"
         d="m 711.50956,344.38459 c -13.80534,-7.03466 -19.40166,-17.3228 -20.15818,-37.05831 -0.53072,-13.84507 0.0806,-17.68579 4.04061,-25.38797 8.0385,-15.63459 24.96925,-23.41072 55.90228,-25.67537 l 16.89116,-1.23663 -1.07883,-8.04331 c -1.47333,-10.98445 -5.60613,-14.55847 -16.83464,-14.55847 -7.8194,0 -10.06112,0.95711 -14.57506,6.22285 -4.74035,5.52986 -6.12186,6.0575 -12.40547,4.73799 -3.88909,-0.81667 -12.29861,-2.54499 -18.68782,-3.8407 -10.38419,-2.10588 -11.61676,-2.88719 -11.61676,-7.3637 0,-12.72015 14.16621,-27.18303 31.58549,-32.24695 16.3672,-4.75808 49.09878,-3.28379 60.6264,2.73071 10.51343,5.48536 22.56524,19.37751 23.91178,27.56317 0.56432,3.43048 1.25962,30.55738 1.54511,60.28199 l 0.51907,54.04476 -20.70813,-0.002 c -20.69547,-0.002 -20.70813,-0.005 -20.70813,-5.01072 v -5.00913 l -9.00666,6.34848 c -7.83256,5.5209 -11.05877,6.45366 -24.74873,7.15537 -13.26544,0.67996 -17.1189,0.10532 -24.49349,-3.65247 z m 51.03621,-32.12864 c 2.72913,-2.72913 4.18003,-7.60428 4.79552,-16.11334 l 0.88249,-12.2003 h -8.38893 c -18.34954,0 -28.85635,9.75238 -25.0032,23.20788 3.19621,11.16138 18.78634,14.03354 27.71412,5.10576 z"
         style="opacity:1;fill:#565656;fill-opacity:1;fill-rule:evenodd;stroke:none;stroke-width:4.44467115;stroke-linecap:square;stroke-linejoin:miter;stroke-miterlimit:4;stroke-dasharray:none;stroke-dashoffset:0;stroke-opacity:1;paint-order:markers stroke fill" />
      <path
         transform="scale(0.26458333)"
         inkscape:connector-curvature="0"
         id="path4581"
         d="m 832.3879,248.58697 v -95.96449 h 22.22336 22.22335 v 95.96449 95.96449 H 854.61126 832.3879 Z"
         style="opacity:1;fill:#565656;fill-opacity:1;fill-rule:evenodd;stroke:none;stroke-width:4.44467115;stroke-linecap:square;stroke-linejoin:miter;stroke-miterlimit:4;stroke-dasharray:none;stroke-dashoffset:0;stroke-opacity:1;paint-order:markers stroke fill" />
      <path
         transform="scale(0.26458333)"
         inkscape:connector-curvature="0"
         id="path4583"
         d="m 938.45392,345.88557 c -19.56895,-6.47834 -30.07416,-15.89031 -38.62768,-34.60782 -4.51573,-9.8817 -5.67671,-15.77735 -6.42643,-32.63455 -1.4701,-33.05483 7.87963,-56.75094 28.20023,-71.47111 10.92488,-7.91394 21.61377,-10.77783 39.39671,-10.55562 36.48832,0.45595 55.71425,22.19625 59.01165,66.7291 0.7656,10.33957 0.9875,19.20366 0.4932,19.69798 -0.4943,0.49432 -19.5043,0.89876 -42.24431,0.89876 h -41.34555 l 1.15143,8.5863 c 2.90851,21.68915 30.96153,27.60188 39.05495,8.23161 2.41709,-5.78492 3.78913,-6.89548 7.40511,-5.99384 2.44107,0.60868 11.02956,2.19205 19.08557,3.51861 16.4306,2.70558 16.9762,3.56757 10.828,17.10413 -9.3851,20.66297 -26.72183,31.34427 -52.74937,32.49933 -8.99975,0.39939 -18.43365,-0.41387 -23.23351,-2.00288 z m 37.37564,-96.44385 c 0,-7.79702 -9.60312,-18.02734 -16.92212,-18.02734 -11.18589,0 -17.70866,5.68546 -20.35715,17.74398 l -1.42757,6.49968 h 19.35342 19.35342 z"
         style="opacity:1;fill:#565656;fill-opacity:1;fill-rule:evenodd;stroke:none;stroke-width:4.44467115;stroke-linecap:square;stroke-linejoin:miter;stroke-miterlimit:4;stroke-dasharray:none;stroke-dashoffset:0;stroke-opacity:1;paint-order:markers stroke fill" />
      <path
         transform="scale(0.26458333)"
         inkscape:connector-curvature="0"
         id="path4585"
         d="m 1070.7202,346.69088 c -8.5068,-2.58456 -14.0795,-6.82568 -18.7389,-14.26125 -4.1271,-6.58629 -4.5002,-10.18744 -5.4411,-52.52793 l -1.0101,-45.45686 -9.0914,-1.01016 -9.0914,-1.01015 v -16.16244 -16.16244 l 9.5965,-0.61577 9.5964,-0.61577 v -9.89073 -9.89074 l 18.497,-13.23208 c 10.1734,-7.27764 19.7193,-13.23208 21.2132,-13.23208 2.1173,0 2.7162,5.123 2.7162,23.23351 v 23.23351 h 14.1422 14.1421 v 17.17259 17.17259 h -14.1421 -14.1422 v 35.35534 c 0,32.6616 0.3079,35.6632 4.0407,39.39595 4.575,4.57505 5.844,4.79117 12.7393,2.16959 4.6675,-1.77459 5.2103,-1.15291 10.5301,12.06192 4.6162,11.4668 5.156,14.47883 3.0495,17.01694 -5.8648,7.06672 -34.9424,11.40776 -48.606,7.25646 z"
         style="opacity:1;fill:#565656;fill-opacity:1;fill-rule:evenodd;stroke:none;stroke-width:4.44467115;stroke-linecap:square;stroke-linejoin:miter;stroke-miterlimit:4;stroke-dasharray:none;stroke-dashoffset:0;stroke-opacity:1;paint-order:markers stroke fill" />
    </g>
  </g>
</svg>
